/* XPM */
static char *a4ce3f89348f467ea5889cc1c91aa6a6w9IRp3VIxqkRMvr2[] = {
/* columns rows colors chars-per-pixel */
"64 64 18 1 ",
"  c black",
". c gray11",
"X c #28200C",
"o c #302410",
"O c #382C14",
"+ c #403018",
"@ c #483818",
"# c #543C1C",
"$ c #5C4020",
"% c #6C4824",
"& c #744C28",
"* c #80502C",
"= c #885830",
"- c #905C34",
"; c #A0643C",
": c #A86840",
"> c #B47044",
", c #BC7848",
/* pixels */
" XO#@OOO@###@#####$##++OXOoOoo+#%**%$$+OOOoXXXXXXXooO@+#++#=%$#O",
"X+%:-&%&>-=*--&&======--&=&&&%%=;::-=-=%%&%%=&=%%=;=--%&&*&>&&$O",
"XO&-&$$*-*==-****&-**=--%%%=%$$%---*&$$&**&&--:%&;;;-%#$#$&=&&$O",
"X@;-%%%%$&&&*&&&=&=&&===%&&-=%&&&$$#$$$*&&&&==-#%*%%#@#%&%%%:=$#",
"X#;=**&$%%$%&%%&&$&&&-=-%&-%%=-=%%$$-&%-=&=&%&%@$&$$@#%--=;%>;%%",
"X%*&=&&$%&&%&%%&&%&*&-&&&-;-&*%=#@#$=$$;=%=$$&%%&&#@#$=-==&$&-$$",
"X#&*&%==--*%%%%&&&&&%&&*&-&=%-*&#&%$$$#$&&=&=*%%####==-===&*=:$#",
"X%--&=;==&%#$$&===*&%%$%%=--%-*&#&&$$$#%=*=-&%*%$%&%-:-===%%&&##",
"X@&=%$=&&=&@##$&&&%$$$$%%&--$&%%@&&$=&&*=&&-&&&$%&=&=;-=&*%$&%#O",
".+$%$#%$$&=#@+@%$$#$#$%&$&&*#*&*@#$$&&$@@$#=%%%#$&&$&&&&-&$&&%#O",
"X+$%%$$%$%=#@@%%+@+#$&=-=;%%$%$&@#$$@##@$%#;-;-##*&%&%$$&%%&%%$o",
"X#&$$$$%#$$#$%$#+++%=:::--%%%*%=&&*$$&&%&&$%=-=#&*&$%&%&&%%%%%$o",
" O##$&%$@####@OooO+%*--*$%=%&&$%@#%$$%%$$&#%=&%$%&%@%$%;&$%%%%#o",
" +#@#$$$+@@+O+XXXX+%==$$$&%#$%#$+$%$@##$%$OO+OOO+++O@##&$$#%$@Oo",
" XXoooooXOOXX.  .X+@#@+@#OOO+%#OXoOoXX+@@oXXXoXXXXXXXXoooooOXooo",
"  ..   . X       XXXoXXXXXXXo@OX XXoXX+@oXXXX+XXXX .. XXX    XXX",
"XXXXXoXoooXXXoOooO++@oXoOXoo+$@X O##+@#$+O@##%+oOoXXXXXXXXXXXo+O",
"&$$%$=&-=*$$%=;-==;;&$&=;&*=-;$XX&-;-&-;=&=---&%*%&%&&&*==----*=",
"$$&%#%=&=%$%=---==--$&&=:===-=@XX&&:;&&==&&=&%%=&%**=-=-=======;",
"$#&$$&%%%$%%&***&#&=&&&&&&=&;%o.X+O@$$%&&$&%%$*=&$;;;&$$%%$%%$&=",
"=%-$%#$&%%&&&*==&%&&*&&%$%$$%*+X ooO@%*%%$-*&%&-&$%$%#$#&&==%$&=",
"=#$#&%%&$%*&&&&%#&&%&=-=%$#%&=+XX%++%%%&%#*###$$#$$%&%#%$$==%%&-",
"@@=-=$%##$&$$$=*&=&%&&=%##$&==@X +O@&$%=%$##$$%$$&$$&%#*=&;-*%&-",
"$#&&$#$##$%%%$%&&&&&==&$$%&%&%+X.#%%%*&$$#%=$$&$%&%%&**&&&:==-;-",
"=&%*##$$##$$%%%&%&&=;&&%%&&%%#oXX$&=$$$==%$$$%=&$$%%&&==-;;&====",
"&%&=$&=#+O#%%%&=%%&&=%&&%$#$$$oXX%%=$=&&%$%-=*=&%&&$%&===-;=-&%%",
"%&&$$$$#$+$%&&=*%%&&&&&&&*&+O$oXX$@#%=%*&#$%&%&%$$%%&=------&&-%",
"$&$#$##@@@$###&&&%&%&*&&&%@OO$oXX@+#*&#$##%%=&*%%--==;;;-=;;=%=&",
"#$##$@@@@@#$$$%#@$$$$&&=$+O#@$OXX+O$&$$$$$%%*&&&%*-----=*=====&=",
"OOOO+OooOOooOoOooO@@@*&$++O+@#oXXO@$%#%@$#$$$$$$$%&%=&==*%$$$#@#",
"X...XXXXXX..X.XXXXO@$&#OoXXOOoX .o+++O+O@OooOOOOoO@@%$+@#@@+o++O",
"       XXX.XXXX .o@%=%OXX .XXX   XXX.XXOoXXXXXooXX+O+OXXXXXXXXXX",
"XoXXXXX@%$O$##OXX%=*=%OXXXXoOXXXooXXXXO##+OoO+$@+OO+oXXoXXXoXXXX",
"@&&*&=&;;;->--$O@;,-;=%$&--&&&&=-&O+@$-;&%&=-==*==&*$$&;&%&;&$$@",
"O#%&*=-*=;&=%$OX@;;=:&&&&&%$%%%=*$oO#$%&&&=;-*==%=-=%&=,**&%&&%#",
"XO$%&&=$&&&=&%OXO&%*=&&%##$#%$$$$#oO$%%%&&==%%&%#*%%$%%$$%$%&%$+",
" o%%$&&&&&-=&%+XO$&=*&&&$#@+%#%%%$###$&*&%#@+@$#$-*%%%$$$%$&&=&O",
"X+%=&&%&%&&&&%+XX$-&$@%%$#+@%%$%&%%$#&%&&$@+o@$$%-&$$#$&$%$-==&@",
".+=&$$$$$#$%%%+XX#=%$#&%##+@&##&&%$$%;--=$OO+#$#$%&&&%$$$%%-=*&@",
"X@&&$$$$%&%%%$@XXO$$#+#$##+@$#@&%$&$%&%%#+oO@$$%&%-%%%#$;;--$&&$",
"X#&*&$$#%=%&&$+XXo#%@@$$#@++@$$$##%%=;-%$##@$%%*;*;%%&$%;&=&%&&@",
"X#==&$#%%%$&%$+XXX#@+#%$$@#@#%&$#@$#-=-==%&@$%%*%=&$#$$$%=-&&%%O",
"X+$&$$@$&==&&$+oXX+OO@$$$#=##$#@#@@#&%---=&#&%&*&=&$#$&$*;$$#@@o",
"X@%$$&$$&&&*=$+X.oOoO+@#$%%+#$@+@O+@&==--%$%*=-==;-&$%&$=&@&#@+O",
"XO###%##%%&%&$oX.Xooo+++#@@$@+@oOoO+%*%=&$&&*===&&%=%%&%&$@$@@OX",
" o&&$#@@$###$+X. XooXXo++++#OOoXXXXO$$#%@@#%$&&&%$%-%$#$%@+++OXX",
" +@+oooXXXXoX.   .oX  XoXXXooX.   .ooXXoXOOoO+OOo+#&%#@+ooXX.XX ",
"X+OoooXXXXX.     .X      XOOoXXX      X. XXoOoXXXoO+#@+oXX   XXX",
"$$++@+@OO+OXoXXXXooXXXXXo$%@@$$oXXXooOOOo+$$$$#oo+@@O+oXXXo+%=-=",
"&=%&%%&------==&-=-&*&***;----=@X#%--=&==;:,-:-%%=====*=*-;;;,:;",
"&&#$$#$$%&%==%&&*==&**=*&=&&%$#oX@%&=%%=-;-;&*&&*=*&&==&=;-=-===",
"%&&==$%$$%%&=&%&&&=&%==&$%$%%%@XX+$##@$=-===&&&&&%%=&==%&%$%&&&&",
"$$#$$#==$%$$&%$%=%-%%**%&&&&%#OXXo@$#$%--=%%$%$&&##&$#$#&%$$$-&$",
"#%%-$#$$$&=&%&&%%%=$%&$$&&&%$@OXXo@%#&&==&&%%=&&$@$=%$%==%#$%;&#",
"#$%%%&=-%%%$%%&&%&=$$&#$%&&$#@oX X@%$*%&=*&%&=&$%$===&%=&%$&=-&@",
"##$$#$$#@%$$%%%%&=*%##@#$$%$#+X  X@@#==&&=&%&=%&---&&&&=&%==;-&#",
"%$@+$&$####$%&%%%%%%#$$$&%%$@+X X@&$%=&%%&%&%&%-==-%&$%&%&=&-=#+",
"%$$%*%$$$#$%=*%%%%%$#&&*=&$$++X X@&&==&$%%&&$*$=%&-$#$%%%&&==%@O",
"%$%==&&$&=&%%=&%%%%$%=*&$&#%OoX.X@%=*&&%&&&#$$$=$&=$#%%%&-&=-=@O",
"$$%&&&&&=%*%&=%%&*%%==&%%%$$ooXXX@%=*&&&%%%#$$$&$&=%$*==&*-==$+O",
"$$$#@@%%%$$$$=&&=-%$&%%&@+@+oOXXX+%*&$%%$$&%##$%%&-=&-*$$$=%&@@@",
"+OOooO++#&&&&%%&%$$#@@#$+O+XoOX  X$&$#@%*$%#@@@#$%=$#&#$%#$@@+%%",
"XXXXXXXo#@O++++O+$+OOOooXXXXXX   XOOoO+#%++oo##+$+#@O++#@@OOOo@$",
"      XO@+++XXX.XX.XXXXoXX       XXXXXXXXXX XXXXoX#OXX@@$$OOXX+$"
};
