/* XPM */
static char *_2a99f458cc041e993df8dca1e7999bdakp6QIb1qQmmajrg[] = {
/* columns rows colors chars-per-pixel */
"64 64 11 1 ",
"  c #181818",
". c #28200C",
"X c #2E2B22",
"o c #313929",
"O c #4C4436",
"+ c #524A42",
"@ c #5E5246",
"# c #685D4C",
"$ c #736B52",
"% c #81735D",
"& c #847B63",
/* pixels */
"         ..  .        .... ......    ...     ......   .. .      ",
"OOo@++OO+++o.O+OoOO+++++++oOOo.Oo+OOO+++Oo+..+++OO++OO+++@@oXO+O",
"@%%@$$$%%@+o.O#@@#$%#+#&%#$$#%$@$##$$$###@@o.O@###@#$$#%%$@#@###",
"+@++++@+++@o.O$@++@@@@@@@+@@+@+o+@@+@@@@#@+o.oOX++O+O@+O+o+++Xo+",
"@@@++@+++@@..O&+++@@@@@@@@@@@@+O+@@+@@@@@@+..X+.XO+++++@@@@++Oo+",
"@++@@@+++++o.+@O+@++@@@@@@@@+@@++@@+++++@@+o.o@X.XO+++OO@@@@@+@@",
"@@+Xo+++@++o.+#o+@++@@@@@@@@O@@++++O+++@@@oo.o+X..OO++++@@@++@+@",
"@@+Oo+@++++O.O#oO@++@@@++@@+o+@+++++++++@@@O.X+X..+OO++@+@@+@+@+",
"@++OO@@+O++o.+#oO@+@@+@@@@@OoO@@+OO++OO++@@o.O@Xoo++O++++@++++++",
"@+O++@@@@++. O@o@+O+++@+@@@+O++@+++O++@@@@@. O#@++O+@oO++@+O++++",
"+@+@+++@@++..+$@@+o++O+++@+OoO++@@@+++++++@..+@#+OO+@O+@++@@@+@@",
"+@++@+++@@+X.O$@@@OOoOOO+@+Ooo+@@@++@++++O+X.O+++O+@@++@+++@++@+",
"OO++@@+@+++X.+#@@+OooOO+O+++oO+@@@@+@++++++X.+@++O+@@@@@+O+@++@+",
"++++@@@@+++o.O+@@@OOO+++++@+++@@+@@@@+XX++@..O#+OO+@@@@+@O++O+Oo",
"oXXXo...OoOo.OoooOX.XoooXOoOX.XooOOooX...oo..OOX..ooXoooooo..oo.",
"...  .    ...... ....... . .........              .   .....     ",
".OOOOOo.ooOO+++ooOO+++ooX.oOo.O@+++++O++O++O++@###@@@oOoOO$##+..",
".O$%#@#@@#%$$$%$$##%$$%#+@@Oo.O+@#$#@$#+@@###$$#$@#$##@+O@$@#+oo",
".O#@++@@@@o+++++++++@@@++@Ooo.O#+++O@@@OOoo@@+@@++++++X..oO++++o",
".O$@++@@+OXo@@@++++@@@@@@oXX..O#++++@@+oooX++O++++++++OXXo@@+++o",
".+$+@@++++oO@@@@+o+@@@@@oXXoo.+#+++O@@Ooooo+++++XXOO++++++@+@@+o",
".+#@o+++++++@@@@+O++@@@++oooo.+$+++O+@+OOOOoo++o.XoO+OO++++O+@@.",
".O@@O+++@++@@+@++++@+@@+OOoXO.O@++++OO+@@+ooo++o.Xo++OXoO++O+++o",
".+$@++++@@O@@+++++++@@@@++OOo.+#+Oo@+++@@+OoO+@Oooo++oOOOO++o++o",
" O$+++++O+O++++++@O+++@++O++. O#@+O@++@o++++++++OoO+++O++O+OoO+O",
".+@+++++O+++++O+Oo++@+@+++++..+#@++@+++O+++@@Oo++O+++@@+++OOO++o",
".O@++++O+++@++O+OO++@+@@@+++X.O$@@@OO++O+++++++++@@+OO+++OO++++.",
".+#++++O+@++@@@++o+@++@@++++X.+#@@@++OOO++o++O+++O+++O++++++OO+.",
".O$+OO+o@@+@@+o++@@+++@@OO++..O#@@@@++++++XX+++@o++OOO+++@++++OX",
".O$@+OO@+@@oo+O+++++O+@+++++O.O$+@@@+++@@oXoO+@++++O.oO++@+o++OX",
".+$@+++@+@@o.X+++++OOO++++++o.+O++++@++@@@OX++++@@oo.X++++Oo++o.",
" O$+++@++++oooo+OXo++O+++O+@. O+O++O+@@o+@@@+++++@+X.o+++@OO++o.",
".+#+O+@++@@OOO++OooOO+++++++..+@oo+++++o@@+o@+OOO+++OoO+++++@++X",
".O#++@+@@@@@+@+@+O+O+++@@++OX.O#OoO++@+o@@+O++Xoo++++OO++O++@++X",
".+$+@+@@@@@@@@OO++++++@@@+++X.++oo+@@@+@@+OO@OoooO@+OoO+Oo++@+O.",
".O+o+O++o+oOX.XoooOOOO++O+O+..OooooO+OoO+oOX.XooooooooOo..oO+X..",
"  ........ ......  ....... ....    .X   . ......    ... . ....  ",
"ooXooooooOoOo.O++@+#@+@#$#++@@+#@@+O++#+++++o.@O#$@O@+@OO+o@@@@#",
"###$$#$$%#@+o.O@##%%$$$%#$$#$$$%$%#++++##@O+o.O$$%$&#$oo@$%#+@#@",
"@+++@@@+++++o.O@oO++++@++@+OO+@@+@@oooo+@++Oo.O#@@OO@oooO+++++++",
"Oo++OO+o@+++..O+..OO+++++O++o+@++@@OOoO+@+OO..O#++++@OOO+++O+O++",
"+O+OOO+O+@++o.+O..X++OO@@O++O+@@@@+++O++@@XOo.+$OO+@@+++@+OoooO+",
"++++++++++@@o.+Oo.X++O+++O+++++@@++++++@@+Xoo.+#+++@+o@@@OoOoo+o",
"++++++++O+@@O.O+..o@+O+++O+++++@@+++@@@@OXooO.O@++@@XX+@@+ooO+Oo",
"O+@+++++OO++o.+#+O@@+OO+++++O++@@@+oo@@+XXXOo.+#++@oXX+@++oo+ooO",
"+@@ooO+@O+@+. O#++@@+O++@@+OOoO+@+++O+@+ooo+. O#++@oXo+++X++Oo++",
"+@@+++@@@++@..+$++o@@@@@@+oO+OO+@@++O++++OO+..+#++++Oo+@+o++oOoO",
"++++++@@@@@+X.O$@@+@O@+@++Oo+O++++++@++O+++OX.O@+OO+O++++O++Ooo+",
"++O++++@@@@+X.+#@@+@@+++@+Oo++++O+++@++Oo++OX.+++oo++O++++++oOoO",
"oooooO+OoO+o..OoOOo+O++o+oOX.XoooOOOO++O+O+...oXX.....XXXXooXOXX",
"..       ..  .        .... ......    ...     ......   .. .   ...",
".O+#@@++@@@@@@@O++##@@@@@@OOOo.Oo+@@##@@@O$@@@#$$##@+@@@@@@oXOOo",
".O@#%%%##$####$#$###$$%####@@o.O@@@#$%$$@+$##$$###@+#@$$$#oX@#@o",
".O@@@+O@@##@@++@+++++@+++@@@@o.O@OO+++OXoO++++++++@+Xo+++++O+@@o",
".O#@+++++oX+@+X++++@@@@+++@@o..OXOO+@oXXoOO++@O+++@OO+++@@++o@o.",
".+#O+++++oo+@+O++++@@@@@++@@+o.++o++o+Ooo+O++@++++@oo+o+++O++@+o",
".+@++++@+O+@+++@@++@@@o@@@@@+o.+@+@+++@++@+@++@@+oo@oOoo@+oO+@+o",
".O#@++++o+++++o@@@@@@ooO@@@++O.O$@@++OO+++X+++@@+OO+@oO+O+OO+++O",
".+@+++++o+++@@+@@@@+++++@@@@+o.+O@@@OOo+@+XO++@@@+++o@++O@+OO@+o",
" O@@+@++OO+@#@+@@+@OX@+@@@+++. O#@@++OO@@+OO+++@@@+O..++@@@+O++.",
".+@X+@++++o+@@+@@++Oo++@@@+++..+@@@o+++@+++X++++@@oX..+@+@@Xo++.",
".O#O+@OO+OX+@+++@+XOO+++@++++X.O++++OO+@@oXoO@@@@@o.XXO@++@Oo++X",
".+@+@@+++o.X+@+@@@oo++++@@+++X.+OXooXXXOOoXXooXoOOX.X.XoXXoooOOX",
".Xo.....XXXX...Oooo.XX..XXooOX.Xoo.oXX.  ..X...OX.. ....XX..... "
};
